# Shadow test rig - a solid occluder over a receiving plane.
# Generated 2026-07-20 to settle whether cascaded shadows are
# faint because of the renderer or because the debug scene's
# caster is a dinosaur SKELETON whose gaps defeat PCF.
# Ground: 40x40 at y=0. Box: 6x6x6 solid, centred at (0, 5, 0).

v -20.0000 0.0000 -20.0000
v -20.0000 0.0000 20.0000
v 20.0000 0.0000 20.0000
v 20.0000 0.0000 -20.0000
v -3.0000 8.0000 -3.0000
v -3.0000 8.0000 3.0000
v 3.0000 8.0000 3.0000
v 3.0000 8.0000 -3.0000
v -3.0000 2.0000 3.0000
v -3.0000 2.0000 -3.0000
v 3.0000 2.0000 -3.0000
v 3.0000 2.0000 3.0000
v -3.0000 2.0000 3.0000
v 3.0000 2.0000 3.0000
v 3.0000 8.0000 3.0000
v -3.0000 8.0000 3.0000
v 3.0000 2.0000 -3.0000
v -3.0000 2.0000 -3.0000
v -3.0000 8.0000 -3.0000
v 3.0000 8.0000 -3.0000
v 3.0000 2.0000 3.0000
v 3.0000 2.0000 -3.0000
v 3.0000 8.0000 -3.0000
v 3.0000 8.0000 3.0000
v -3.0000 2.0000 -3.0000
v -3.0000 2.0000 3.0000
v -3.0000 8.0000 3.0000
v -3.0000 8.0000 -3.0000
vn 0.0000 1.0000 0.0000
vn 0.0000 1.0000 0.0000
vn 0.0000 -1.0000 0.0000
vn 0.0000 0.0000 1.0000
vn 0.0000 0.0000 -1.0000
vn 1.0000 0.0000 0.0000
vn -1.0000 0.0000 0.0000

f 1//1 2//1 3//1 4//1
f 5//2 6//2 7//2 8//2
f 9//3 10//3 11//3 12//3
f 13//4 14//4 15//4 16//4
f 17//5 18//5 19//5 20//5
f 21//6 22//6 23//6 24//6
f 25//7 26//7 27//7 28//7
